<svg xmlns="http://www.w3.org/2000/svg" viewBox="0 0 803.34 188.53"><defs><style>.cls-1{fill:#f55d00;}.cls-2{fill:none;}</style></defs><g id="Layer_2" data-name="Layer 2"><circle class="cls-1" cx="87.69" cy="173.14" r="15.39"/><circle class="cls-1" cx="146.2" cy="173.14" r="15.39"/><path class="cls-1" d="M326.31,490.64l-128.19-9.83C180.07,440.61,152,446,152,446a11.55,11.55,0,1,0,8.11,21l0,0,.12-.08c1.54-1,13.36-8.07,18.18,7.45,0,.12.07.25.11.37l6.75,22.79H173.59a7.7,7.7,0,1,0,0,7.69h14l5,16.81h34.87a7.69,7.69,0,1,1,0,7.7h-60a7.7,7.7,0,1,0,0,7.69h29.7l3.84,13H241.4a7.7,7.7,0,1,1,0,7.69H191.83a7.7,7.7,0,1,0,0,7.7h13.72a36.53,36.53,0,0,0,39.34,24.62l46.17-6a48.45,48.45,0,0,0,40.54-35.43l9.92-36.77A17.1,17.1,0,0,0,326.31,490.64Z" transform="translate(-142.12 -445.73)"/><polygon points="304.18 44.27 233.01 44.27 233.01 56.45 262.24 56.45 262.24 142.8 274.95 142.8 274.95 56.45 304.18 56.45 304.18 44.27"/><path d="M474.75,515.11c-21.54,0-37.18,15.75-37.18,37.45S453.43,590,475.28,590c13.65,0,25.07-6,31.34-16.35l1.44-2.39-10.71-6.33L496,567.44c-3.64,6.66-11.33,10.65-20.55,10.65-12.7,0-22.37-7.64-24.92-19.31h59.71V556c0-.47,0-1,.06-1.42s.07-1.18.07-1.77C510.34,534.54,497.87,515.11,474.75,515.11Zm-24.31,31.62c2.32-11.91,11.77-19.71,24.31-19.71,9.81,0,20.25,6.13,22.75,19.71Z" transform="translate(-142.12 -445.73)"/><path d="M575,565.74c-4.11,7.73-12.14,12.35-21.47,12.35-14.48,0-25.4-11-25.4-25.53S539.06,527,553.54,527c9.49,0,17.54,4.68,21,12.21l1.28,2.78,10.25-6L585,533.72c-5.3-11.48-17.36-18.61-31.48-18.61-21.5,0-37.71,16.1-37.71,37.45S532,590,553.54,590c13.82,0,26.07-7,32-18.37l1.21-2.31-10.32-6.15Z" transform="translate(-142.12 -445.73)"/><path d="M628.08,515.11c-8.62,0-15.75,2.81-21,8.22V490H594.88v98.54h12.18V550.69c0-14.82,7.66-23.67,20.48-23.67,10.66,0,16.77,6.36,16.77,17.43v44.09h12.31V544.45C656.62,526.63,645.42,515.11,628.08,515.11Z" transform="translate(-142.12 -445.73)"/><polygon points="573.78 96.68 542.13 44.27 529.03 44.27 529.03 142.8 541.61 142.8 541.61 67.36 571.69 117.3 576.01 117.3 606.09 67.36 606.09 142.8 618.67 142.8 618.67 44.27 605.43 44.27 573.78 96.68"/><path d="M835.49,525.9a34.71,34.71,0,0,0-25.79-10.79c-20.85,0-37.18,16.45-37.18,37.45S788.85,590,809.7,590a34.71,34.71,0,0,0,25.79-10.79v9.33h12.32v-72H835.49Zm-25.26,52.19a25.54,25.54,0,1,1,25.26-25.53A25.2,25.2,0,0,1,810.23,578.09Z" transform="translate(-142.12 -445.73)"/><path d="M874.91,523.11v-6.54H862.73v72h12.18v-39.7c0-19.75,14.87-21.28,19.42-21.28h2.77V515.64h-2.77C886.23,515.64,879.66,518.2,874.91,523.11Z" transform="translate(-142.12 -445.73)"/><path d="M945.46,528.62v-12h-19.8V497l-12.31,3.62v15.91H898.73v12h14.62V569c0,6.94,1.77,12,5.4,15.4,3.47,3.26,8.45,4.85,15.23,4.85a61.69,61.69,0,0,0,9.13-.77l2.35-.36V576.77l-3,.26c-2.72.24-5.56.47-8,.47-6.63,0-8.84-1.23-8.84-8.47V528.62Z" transform="translate(-142.12 -445.73)"/><rect class="cls-2" x="449.52" y="138.33" width="188.53" height="803.34" transform="translate(941.67 -449.52) rotate(90)"/></g></svg>