<svg xmlns="http://www.w3.org/2000/svg" viewBox="0 0 220 220"><defs><style>.cls-1{fill:#f55d00;}.cls-2{fill:none;}</style></defs><g id="Layer_2" data-name="Layer 2"><circle class="cls-1" cx="100.2" cy="172.75" r="12.25"/><circle class="cls-1" cx="146.76" cy="172.75" r="12.25"/><path class="cls-1" d="M688,490.4l-102-7.82c-14.36-32-36.71-27.72-36.71-27.72a9.19,9.19,0,1,0,6.46,16.71l0,0,.1-.06c1.22-.8,10.63-6.42,14.46,5.92l.09.3,5.37,18.13h-9.32a6.13,6.13,0,1,0,0,6.12h11.14l4,13.38h27.74a6.12,6.12,0,1,1,0,6.12H561.56a6.12,6.12,0,1,0,0,6.12H585.2l3,10.31h32.17a6.13,6.13,0,1,1,0,6.12H581a6.13,6.13,0,1,0,0,6.13H591.9a29.08,29.08,0,0,0,31.3,19.59L659.94,565a38.56,38.56,0,0,0,32.25-28.19l7.89-29.26A13.61,13.61,0,0,0,688,490.4Z" transform="translate(-510.99 -419.67)"/><circle class="cls-2" cx="110" cy="110" r="110"/></g></svg>